<?xml version="1.0" encoding="UTF-8"?>
<svg width="256px" height="256px" viewBox="0 0 256 256" version="1.1" xmlns="http://www.w3.org/2000/svg" xmlns:xlink="http://www.w3.org/1999/xlink">
    <title>Group</title>
    <g id="Page-1" stroke="none" stroke-width="1" fill="none" fill-rule="evenodd">
        <g id="Group">
            <g id="HubTools" transform="translate(4.750000, 2.500000)">
                <path d="M160.803602,0 C174.237952,0 185.128645,10.8906927 185.128645,24.3250429 C185.128645,25.7237547 185.010592,27.0948936 184.783905,28.4290393 C221.022383,44.6734943 246.264151,81.0626525 246.264151,123.347341 C246.264151,180.770272 199.713668,227.320755 142.290738,227.320755 C131.765767,227.320755 121.606053,225.756904 112.031285,222.848892 C107.195394,239.126733 92.1176339,251 74.2667238,251 C52.5102098,251 34.8730703,233.362861 34.8730703,211.606346 C34.8730703,197.349332 42.4467459,184.861245 53.7902529,177.945928 C43.979425,162.078533 38.3173242,143.374164 38.3173242,123.347341 C38.3173242,119.531937 38.522835,115.764532 38.9233909,112.055593 C16.4572971,105.675531 0,85.0045235 0,60.4897084 C0,30.8865827 23.998075,6.88850772 53.6012007,6.88850772 C71.679659,6.88850772 87.667728,15.8385287 97.37627,29.5494331 C109.459036,23.7525315 122.835848,20.2221146 136.955559,19.5084441 C139.189667,8.38187807 149.017788,0 160.803602,0 Z" id="Combined-Shape" fill="#FE7656"></path>
                <path d="M136.819956,185.445917 C138.275107,185.877411 139.776003,185.037262 140.207907,183.58402 L171.246401,76.8225958 C171.655656,75.3695752 170.837147,73.8482606 169.381773,73.4396055 L155.511091,69.4206832 C154.055939,69.0120281 152.532394,69.8293383 152.123139,71.2825806 L121.084645,178.044005 C120.675391,179.497025 121.4939,181.01834 122.949273,181.426995 L136.819956,185.445917 Z M111.614582,159.716789 L121.522073,149.12422 C122.569673,148.005505 122.50139,146.22488 121.339688,145.19757 L100.704865,127.002733 L121.339688,108.807896 C122.50139,107.780586 122.592359,105.999961 121.522073,104.881246 L111.614582,94.288677 C110.589669,93.1929248 108.858571,93.1242591 107.742689,94.1745315 L74.9225672,124.993817 C73.7610882,126.066829 73.7610882,127.915897 74.9225672,128.988909 L107.742689,159.830934 C108.858571,160.881207 110.589669,160.835504 111.614582,159.716789 Z M185.018889,159.850861 L217.839011,129.01653 C219.00049,127.943794 219.00049,126.0952 217.839011,125.022464 L185.018889,94.1653994 C183.925694,93.1383537 182.194819,93.1840447 181.146996,94.2795156 L171.239505,104.869588 C170.191905,105.988016 170.260188,107.768184 171.42189,108.79523 L192.056714,127.00813 L171.42189,145.198296 C170.260188,146.225342 170.169219,148.00551 171.239505,149.123938 L181.146996,159.713787 C182.171909,160.832215 183.903007,160.877906 185.018889,159.850861 Z" id="Shape" fill="#EF6747" fill-rule="nonzero"></path>
                <path d="M132.514638,181.1406 C133.96979,181.572093 135.470685,180.731945 135.90259,179.278702 L166.941084,72.5172784 C167.350338,71.0642579 166.531829,69.5429433 165.076456,69.1342882 L151.205773,65.1153659 C149.750622,64.7067108 148.227076,65.524021 147.817822,66.9772633 L116.779328,173.738687 C116.370073,175.191708 117.188582,176.713022 118.643956,177.121677 L132.514638,181.1406 Z M107.309264,155.411472 L117.216756,144.818903 C118.264355,143.700188 118.196072,141.919563 117.034371,140.892253 L96.3995472,122.697416 L117.034371,104.502578 C118.196072,103.475269 118.287042,101.694643 117.216756,100.575928 L107.309264,89.9833597 C106.284351,88.8876074 104.553254,88.8189418 103.437371,89.8692142 L70.6172499,120.688499 C69.4557709,121.761512 69.4557709,123.61058 70.6172499,124.683592 L103.437371,155.525617 C104.553254,156.575889 106.284351,156.530187 107.309264,155.411472 Z M180.713572,155.545543 L213.533694,124.711213 C214.695172,123.638476 214.695172,121.789883 213.533694,120.717146 L180.713572,89.8600821 C179.620376,88.8330364 177.889501,88.8787274 176.841679,89.9741983 L166.934188,100.564271 C165.886588,101.682698 165.954871,103.462866 167.116573,104.489912 L187.751396,122.702813 L167.116573,140.892979 C165.954871,141.920025 165.863901,143.700193 166.934188,144.818621 L176.841679,155.40847 C177.866592,156.526898 179.597689,156.572589 180.713572,155.545543 Z" id="Shape" fill="#FFFFFF" fill-rule="nonzero"></path>
            </g>
            <rect id="Rectangle" x="0" y="0" width="256" height="256"></rect>
        </g>
    </g>
</svg>