<?xml version="1.0" encoding="UTF-8"?>
<svg width="100px" height="123px" viewBox="0 0 100 123" version="1.1" xmlns="http://www.w3.org/2000/svg" xmlns:xlink="http://www.w3.org/1999/xlink">
    <title>Shape</title>
    <g id="Page-1" stroke="none" strokeWidth="1" fill="none" fill-rule="evenodd">
        <path d="M52.1960966,0.840249019 L52.499092,1.11835098 L52.499092,1.11835098 L52.7706458,1.37380074 L52.7706458,1.37380074 L52.9709548,1.56498945 L52.9709548,1.56498945 L53.3639367,1.94593099 L53.3639367,1.94593099 L53.7289166,2.30599721 L53.7289166,2.30599721 L54.1363403,2.714507 L54.1363403,2.714507 L54.4683578,3.05227869 L54.4683578,3.05227869 L54.8219523,3.41664247 L54.8219523,3.41664247 L55.3252738,3.94333933 L55.3252738,3.94333933 L55.5899333,4.22401928 L55.5899333,4.22401928 L56.0023503,4.66646881 L56.0023503,4.66646881 L56.2871546,4.97559982 L56.2871546,4.97559982 L56.5795063,5.29596516 L56.5795063,5.29596516 L56.8791136,5.62748135 L56.8791136,5.62748135 L57.1856846,5.9700649 L57.1856846,5.9700649 L57.4989277,6.32363234 L57.4989277,6.32363234 L57.8185509,6.68810017 C57.872337,6.74974854 57.9263767,6.81184762 57.980664,6.87439565 L58.3093105,7.25505756 L58.3093105,7.25505756 L58.6436079,7.64641116 C58.6997788,7.7125231 58.756173,7.77907704 58.8127844,7.84607126 L59.1550109,8.25330587 L59.1550109,8.25330587 L59.5021587,8.67102347 C59.5604106,8.74151202 59.6188553,8.81243387 59.6774869,8.8837873 L60.0314697,9.31707286 L60.0314697,9.31707286 L60.3896444,9.76063269 C60.4496733,9.83541089 60.5098647,9.91061369 60.5702125,9.98623938 L60.9341279,10.4450541 L60.9341279,10.4450541 L61.3015059,10.9139344 C61.3630079,10.9929153 61.424642,11.0723121 61.4864021,11.1521231 L61.8584267,11.6359452 C61.9206666,11.717406 61.9830205,11.7992774 62.0454821,11.8815578 L62.4214968,12.380134 C63.3645243,13.6387737 64.3290709,14.9886475 65.2946211,16.4238857 C69.0846734,22.0580324 72.1092413,27.8543171 74.282735,33.6518072 C76.0599248,38.3893726 77.2690286,43.1362806 77.9010054,47.8376813 C83.8172361,49.2390604 88.8200087,51.0937027 92.4593751,53.2430867 C96.7597102,55.7833621 98.7156744,58.4697032 99.51511,60.7771944 L99.58174,60.9768781 C99.6455129,61.1755814 99.7008012,61.371305 99.7483857,61.5637038 L99.7934314,61.7549815 C99.8005206,61.7866721 99.8074031,61.8182672 99.8140825,61.8497651 L99.8517499,62.0375742 L99.8517499,62.0375742 L99.8847154,62.2229749 C99.8898275,62.2536701 99.8947509,62.2842617 99.8994893,62.3147482 L99.9257274,62.4963927 L99.9257274,62.4963927 L99.9476976,62.6754371 C99.9510133,62.7050569 99.9541584,62.7345652 99.9571365,62.7639604 L99.9730302,62.9389609 C99.9776794,62.9968334 99.9816897,63.0542406 99.9850898,63.1111697 L99.993489,63.2805099 L99.993489,63.2805099 L99.9984012,63.446905 L99.9984012,63.446905 L100,63.6102782 L100,63.6102782 C100,67.6134004 97.2349133,73.2999857 84.0622514,77.655713 C82.4234376,78.197626 80.6893547,78.695371 78.8744619,79.1479999 L78.4190636,79.2602167 L78.4190636,89.5354898 C78.4190636,91.3234511 76.9928026,92.7782585 75.2163309,92.8247226 L75.1286858,92.8258676 L62.8426598,92.8258676 C62.5699183,98.177026 61.6386793,103.375992 60.1043952,108.026461 C58.261205,113.610881 55.585023,118.321624 52.3645635,121.649674 C51.7446416,122.29039 50.8911565,122.651735 49.9996986,122.651735 C49.1082407,122.651735 48.255057,122.29039 47.6354365,121.649674 C44.414977,118.321624 41.7384936,113.610881 39.8959062,108.026461 C38.3987496,103.489418 37.4755801,98.4303078 37.1787302,93.2171384 L37.1576416,92.8258676 L24.8713142,92.8258676 C23.0833528,92.8258676 21.6285455,91.3998983 21.5820814,89.6231489 L21.5809364,89.5354898 L21.5809364,79.2602167 C19.6003207,78.7780218 17.7131302,78.2427854 15.9383514,77.655713 C2.89711768,73.3432447 0.0563485185,67.7269931 0,63.7308738 L0,63.6102782 C0,63.5563326 0,63.5018706 0.0015988355,63.446905 L0.00651105914,63.2805099 L0.00651105914,63.2805099 L0.0149102466,63.1111697 C0.0166103346,63.0827051 0.0184629451,63.054121 0.0204716943,63.025419 L0.034426782,62.8518048 C0.0397223187,62.7934702 0.0456713392,62.7346767 0.0523027729,62.6754371 L0.0742732427,62.4963927 L0.0742732427,62.4963927 L0.100511767,62.3147482 C0.105250169,62.2842617 0.110173638,62.2536701 0.115285792,62.2229749 L0.148251853,62.0375742 L0.148251853,62.0375742 L0.185919907,61.8497651 C0.192599392,61.8182672 0.199482026,61.7866721 0.206571425,61.7549815 L0.251617925,61.5637038 C0.299203462,61.371305 0.354492899,61.1755814 0.418267326,60.9768781 L0.484899013,60.7771944 C1.28435458,58.4697032 3.24038322,55.7833621 7.5409263,53.2430867 C11.1802927,51.0937027 16.1827639,49.2390604 22.0989946,47.8376813 C22.7312728,43.1362806 23.9400752,38.3893726 25.7169636,33.6518072 C27.8910601,27.8543171 30.9153266,22.0580324 34.7056803,16.4238857 C35.0848663,15.8602239 35.4638961,15.3097311 35.8415272,14.7727626 L36.2186459,14.2403152 C36.3441661,14.0643442 36.4694848,13.8898891 36.594556,13.7169629 L36.9689813,13.2027847 L36.9689813,13.2027847 L37.3416458,12.6978594 C37.4035944,12.6144806 37.4654582,12.5314907 37.5272314,12.4488913 L37.8967367,11.9579934 C37.9581243,11.8769625 38.0194098,11.7963253 38.0805874,11.7160835 L38.4463124,11.2393907 C38.5070355,11.1607371 38.5676391,11.0824822 38.6281176,11.0046277 L38.989441,10.5423176 C39.0493959,10.466071 39.1092142,10.390228 39.1688901,10.3147903 L39.5251905,9.86704056 L39.5251905,9.86704056 L39.8777972,9.42909635 L39.8777972,9.42909635 L40.2264339,9.00103662 L40.2264339,9.00103662 L40.5708247,8.58294032 L40.5708247,8.58294032 L40.9106933,8.17488639 L40.9106933,8.17488639 L41.2457636,7.77695376 C41.3011935,7.71147948 41.3564119,7.64643021 41.4114132,7.5818076 L41.7387684,7.19920494 L41.7387684,7.19920494 L42.060635,6.82692094 L42.060635,6.82692094 L42.376737,6.46503453 L42.376737,6.46503453 L42.6867981,6.11362466 L42.6867981,6.11362466 L42.9905423,5.77277027 L42.9905423,5.77277027 L43.4337102,5.28145288 L43.4337102,5.28145288 L43.720454,4.96733254 L43.720454,4.96733254 L43.9999144,4.66404397 L43.9999144,4.66404397 L44.2718153,4.3716661 L44.2718153,4.3716661 L44.6648885,3.95372956 L44.6648885,3.95372956 L44.9166826,3.68897383 L44.9166826,3.68897383 L45.2783013,3.31284052 L45.2783013,3.31284052 L45.6198047,2.96214437 L45.6198047,2.96214437 L46.0422414,2.53457893 L46.0422414,2.53457893 L46.333185,2.24427226 L46.333185,2.24427226 L46.6848261,1.89819314 L46.6848261,1.89819314 L47.0629581,1.53236943 L47.0629581,1.53236943 L47.1942167,1.40706771 L47.1942167,1.40706771 L47.5585742,1.06458721 L47.5585742,1.06458721 L47.803602,0.840550391 L47.803602,0.840550391 C49.0374183,-0.268196626 50.93365,-0.292005002 52.1960966,0.840249019 Z M56.2534658,92.8258676 L43.7462329,92.8258676 C44.2199894,101.210334 46.4841961,108.88085 49.9996986,114.120501 C53.5158039,108.88085 55.780312,101.210334 56.2534658,92.8258676 Z M71.838308,80.6079516 C65.1409215,81.7441235 57.7015575,82.3462644 50,82.3462644 C42.4778429,82.3462644 35.2049634,81.7718044 28.6301298,80.6863521 L28.161692,80.6079516 L28.161692,86.245112 L71.838308,86.245112 L71.838308,80.6079516 Z M63.530089,26.1253468 L36.469911,26.1253468 C36.3412083,26.3571263 36.2128219,26.5910532 36.0848466,26.8270917 L35.8294721,27.3019733 L35.8294721,27.3019733 L35.5753623,27.7824216 C35.4486516,28.0240268 35.3224784,28.2676957 35.1969372,28.5133921 L34.9467258,29.007478 C34.5727573,29.7526302 34.2050463,30.5158157 33.8461509,31.2960644 L33.6082213,31.8187474 C30.5722729,38.5586809 28.2232049,46.5318167 28.1628808,55.1305975 L28.161692,55.4693206 L28.161692,64.8214916 C28.161692,66.6390652 26.6885864,68.1118694 24.8713142,68.1118694 C23.0836494,68.1118694 21.6285551,66.6861919 21.5820816,64.9091649 L21.5809364,64.8214916 L21.5809364,55.4693206 C21.5809364,55.2297299 21.5827447,54.9895366 21.5860597,54.7496446 C17.2173735,55.911433 13.5656508,57.327278 10.8876606,58.9091788 C8.15060154,60.5257374 6.5807556,62.2393377 6.5807556,63.6102782 C6.5807556,64.9908355 8.26252143,66.9364294 11.8975203,68.8671971 L12.2185369,69.0350385 C12.9790935,69.4265152 13.8203845,69.8166897 14.7446772,70.2007183 L15.1458911,70.3649116 C15.2813273,70.4195079 15.4184641,70.4739646 15.5573081,70.5282677 L15.9789679,70.6907017 C16.0501003,70.7176925 16.1216611,70.7446413 16.1936512,70.7715465 L16.6307496,70.9324386 C17.0730124,71.092778 17.5307881,71.2514167 18.0042554,71.4079733 C21.9264477,72.7048923 26.4588377,73.7328877 31.3957365,74.4639299 L32.1037373,74.5663414 L32.1037373,74.5663414 L32.8171083,74.6646945 C33.2944495,74.7289065 33.775282,74.7904008 34.2594282,74.8491532 L34.9881105,74.9352223 C35.4755259,74.9912268 35.9661661,75.0444773 36.4598534,75.0949496 L37.2026476,75.1685713 C38.1960276,75.2639474 39.2012409,75.3481623 40.2168658,75.4210222 L40.9805144,75.4735351 C43.9151475,75.6666498 46.9329023,75.7655088 50,75.7655088 C53.0670977,75.7655088 56.084891,75.6666498 59.0195767,75.4735351 L59.7832395,75.4210222 C60.7988835,75.3481623 61.8041173,75.2639474 62.7975184,75.1685713 L63.5403283,75.0949496 C64.0340263,75.0444773 64.5246771,74.9912268 65.012103,74.9352223 L65.740801,74.8491532 C66.2249576,74.7904008 66.7058004,74.7289065 67.1831516,74.6646945 L67.8965375,74.5663414 L67.8965375,74.5663414 L68.6045526,74.4639299 C73.5415493,73.7328877 78.0739928,72.7048923 81.996046,71.4079733 C82.4695132,71.2514167 82.927289,71.092778 83.3695518,70.9324386 L83.8066502,70.7715465 C83.8786403,70.7446413 83.9502011,70.7176925 84.0213335,70.6907017 L84.4429933,70.5282677 C84.5818372,70.4739646 84.718974,70.4195079 84.8544103,70.3649116 L85.2556241,70.2007183 C86.1799169,69.8166897 87.0212078,69.4265152 87.7817645,69.0350385 L88.1027811,68.8671971 C91.7377799,66.9364294 93.4195458,64.9908355 93.4195458,63.6102782 C93.4195458,62.2393377 91.8496998,60.5257374 89.1126407,58.9091788 C86.6672441,57.4648346 83.4103482,56.1589226 79.5371651,55.0581957 L78.9796819,54.902352 C78.7924707,54.8508742 78.6038831,54.7998689 78.4139403,54.7493432 L78.4177451,55.1094449 L78.4190636,55.4693206 L78.4190636,64.8214916 C78.4190636,66.6390652 76.9456566,68.1118694 75.1286858,68.1118694 C73.3410209,68.1118694 71.8859266,66.6861919 71.8394531,64.9091649 L71.838308,64.8214916 L71.838308,55.4693206 C71.838308,45.6454543 68.8368583,36.6231608 65.1967555,29.2942935 L64.9447301,28.79155 L64.9447301,28.79155 L64.6908518,28.2942411 C64.5634782,28.0469561 64.4354744,27.8017334 64.3069372,27.5586097 L64.0491804,27.0751716 C63.9630436,26.9149657 63.8766984,26.7557034 63.7901736,26.5973956 L63.530089,26.1253468 L63.530089,26.1253468 Z M50,39.8534371 C56.1163416,39.8534371 61.0919907,44.8290862 61.0919907,50.9454278 C61.0919907,53.9082144 59.9383393,56.6937944 57.8435036,58.78863 C55.78646,60.8456737 53.0641427,61.9951563 50.1614436,62.0362757 L49.9996986,62.0374185 L49.9996986,62.0374185 L49.8165723,62.0359296 C43.7849443,61.9377855 38.9083076,57.0003076 38.9080093,50.9454278 C38.9080093,44.8290862 43.8836584,39.8534371 50,39.8534371 Z M50,46.4341927 C47.5124768,46.4341927 45.4887649,48.4579046 45.4887649,50.9454278 C45.4887649,53.432951 47.5124768,55.4566632 50,55.4566632 C51.2048846,55.4569643 52.3380428,54.9877283 53.1903223,54.1354488 C54.0419992,53.2834706 54.5118379,52.1503124 54.5118379,50.9454278 C54.5118379,48.4579046 52.4875232,46.4341927 50,46.4341927 Z M50.293978,8.20621002 L50.0018082,7.90229545 L50.0018082,7.90229545 L49.6021888,8.31929742 L49.6021888,8.31929742 L49.2850286,8.65469378 L49.2850286,8.65469378 L49.0656561,8.88894937 L49.0656561,8.88894937 L48.6087731,9.38273921 L48.6087731,9.38273921 L48.2510278,9.77493739 L48.2510278,9.77493739 L48.0057235,10.0466851 L48.0057235,10.0466851 L47.6280561,10.4695631 L47.6280561,10.4695631 L47.2393353,10.9105483 L47.2393353,10.9105483 L46.8402362,11.3694154 L46.8402362,11.3694154 L46.4314339,11.8459389 L46.4314339,11.8459389 L46.0136034,12.3398932 L46.0136034,12.3398932 L45.7303674,12.6787687 L45.7303674,12.6787687 L45.4436188,13.0252242 L45.4436188,13.0252242 L45.1535578,13.3791929 L45.1535578,13.3791929 L44.8603842,13.7406082 L44.8603842,13.7406082 L44.5642981,14.1094031 C44.5147188,14.1714802 44.4650265,14.233862 44.4152253,14.296547 L44.1151455,14.6762862 L44.1151455,14.6762862 L43.8126531,15.063238 L43.8126531,15.063238 L43.5079483,15.4573358 L43.5079483,15.4573358 L43.201231,15.8585125 L43.201231,15.8585125 L42.8927012,16.2667016 L42.8927012,16.2667016 L42.5825589,16.6818361 L42.5825589,16.6818361 L42.2710042,17.1038492 C42.2189718,17.1747543 42.1668889,17.2459431 42.1147597,17.3174144 L41.8014613,17.7496203 C41.7491633,17.8222158 41.6968273,17.8950909 41.6444574,17.9682443 L41.3298654,18.4104927 C41.2773767,18.4847535 41.2248626,18.5592899 41.1723272,18.6341003 L40.8568914,19.0862408 C40.8042872,19.162142 40.75167,19.2383145 40.6990439,19.314757 L40.5411433,19.5448926 L59.4597608,19.5448926 L59.1474929,19.0911442 C59.0434615,18.9409704 58.9394986,18.7918758 58.8356353,18.64387 L58.5243756,18.203129 L58.5243756,18.203129 L58.2139014,17.7689804 L58.2139014,17.7689804 L57.9044001,17.341483 L57.9044001,17.341483 L57.5960592,16.9206961 C57.5447762,16.8511274 57.4935493,16.7818408 57.4423825,16.7128375 L57.1361338,16.3022268 L57.1361338,16.3022268 L56.8315144,15.8984742 L56.8315144,15.8984742 L56.5287116,15.5016386 L56.5287116,15.5016386 L56.2279131,15.111779 L56.2279131,15.111779 L55.9293062,14.7289546 L55.9293062,14.7289546 L55.6330787,14.3532244 L55.6330787,14.3532244 L55.3394178,13.9846473 C55.2906986,13.9238172 55.2420942,13.8632876 55.1936085,13.8030597 L54.9041493,13.4453232 L54.9041493,13.4453232 L54.6177257,13.0948876 L54.6177257,13.0948876 L54.194192,12.5830523 L54.194192,12.5830523 L53.7785429,12.0879759 L53.7785429,12.0879759 L53.5061363,11.767334 L53.5061363,11.767334 L53.1050346,11.3006322 L53.1050346,11.3006322 L52.8429122,10.999091 L52.8429122,10.999091 L52.5852317,10.7052936 L52.5852317,10.7052936 L52.3321805,10.4192989 L52.3321805,10.4192989 L51.9616938,10.005066 L51.9616938,10.005066 L51.6026779,9.60872127 L51.6026779,9.60872127 L51.3700191,9.35452777 L51.3700191,9.35452777 L50.9215895,8.87049359 L50.9215895,8.87049359 L50.6007827,8.52900915 L50.6007827,8.52900915 L50.293978,8.20621002 L50.293978,8.20621002 Z" id="Shape" fill="#000000"></path>
    </g>
</svg>
